<?xml version="1.0" standalone="no"?>
<!DOCTYPE svg PUBLIC "-//W3C//DTD SVG 20010904//EN"
 "http://www.w3.org/TR/2001/REC-SVG-20010904/DTD/svg10.dtd">
<svg version="1.0" xmlns="http://www.w3.org/2000/svg"
 width="707.000000pt" height="511.000000pt" viewBox="0 0 707.000000 511.000000"
 preserveAspectRatio="xMidYMid meet">

<g transform="translate(0.000000,511.000000) scale(0.100000,-0.100000)"
fill="#000000" stroke="none">
<path d="M1510 4894 c-221 -138 -239 -153 -317 -258 -41 -55 -90 -129 -109
-165 -19 -36 -43 -80 -53 -97 -11 -17 -26 -65 -36 -106 -15 -68 -23 -82 -91
-164 -40 -49 -86 -107 -101 -129 -14 -22 -46 -64 -70 -94 -76 -94 -145 -266
-114 -285 19 -12 12 -62 -23 -184 -63 -215 -83 -572 -41 -736 7 -28 16 -76 20
-106 14 -112 66 -228 117 -264 12 -9 39 -16 60 -16 33 0 42 -6 92 -67 76 -95
97 -116 225 -223 l114 -95 -9 -130 c-14 -227 -11 -275 20 -339 51 -105 179
-209 378 -308 97 -48 130 -69 138 -89 11 -25 9 -63 -15 -264 l-5 -40 15 30
c14 27 15 27 11 5 -3 -14 -6 -28 -6 -32 0 -5 -33 -8 -72 -8 -40 -1 -90 -7
-110 -14 -48 -17 -112 -68 -138 -111 -12 -20 -26 -33 -30 -30 -5 3 -12 1 -15
-5 -4 -6 -31 -28 -61 -50 -30 -23 -56 -51 -60 -65 -5 -19 -14 -26 -43 -30 -75
-12 -535 -94 -731 -131 -130 -25 -185 -41 -150 -45 8 -1 119 -2 245 -2 l230 0
-165 -7 -165 -6 196 -2 c232 -2 482 8 454 19 -11 4 28 8 90 8 61 1 250 8 420
16 349 16 1662 20 1900 5 77 -5 282 -13 455 -19 338 -12 788 -37 910 -52 105
-12 142 -16 245 -23 50 -4 133 -11 185 -16 52 -5 145 -12 205 -15 61 -4 133
-11 160 -17 87 -16 236 -37 385 -52 151 -16 210 -18 150 -6 -19 4 17 5 81 2
106 -4 198 2 186 14 -8 9 -557 144 -687 169 -167 33 -611 105 -647 105 -42 0
-48 9 -62 88 -7 41 -67 232 -133 425 -66 194 -130 388 -142 431 l-23 80 -77
40 c-56 29 -96 60 -145 111 -108 114 -142 205 -181 482 -23 167 -24 193 -10
193 6 0 10 -4 10 -10 0 -14 164 -281 207 -337 19 -25 29 -42 23 -38 -7 4 -4
-5 6 -21 23 -36 20 -32 138 -153 77 -79 114 -108 165 -132 36 -17 76 -32 88
-33 12 0 21 -5 20 -10 -1 -5 14 -14 33 -19 19 -5 87 -27 150 -48 179 -59 263
-74 435 -74 183 0 230 11 409 98 l129 62 -184 11 c-169 10 -269 27 -269 44 0
4 49 10 109 13 214 12 428 106 598 261 98 89 236 306 257 402 6 27 -10 14
-124 -100 l-131 -131 45 70 c84 127 106 169 155 295 70 177 84 249 83 400 -1
109 -6 145 -40 280 -97 389 -316 723 -603 923 -81 56 -160 96 -274 136 -126
45 -117 43 -105 22 9 -18 6 -19 -31 -14 l-41 6 50 -74 c74 -111 165 -296 181
-367 10 -46 12 -101 8 -195 -9 -188 -37 -262 -156 -404 -39 -47 -62 -65 -98
-77 -50 -17 -173 -22 -173 -7 0 6 -21 13 -47 16 -108 15 -274 56 -368 90 -122
44 -274 85 -324 86 l-36 1 32 9 c65 19 45 29 -59 32 -249 6 -360 -9 -536 -69
-112 -39 -239 -105 -304 -159 -65 -53 -57 -53 -173 -1 -198 87 -370 102 -712
62 -363 -43 -517 -33 -676 41 -93 44 -137 88 -137 139 0 22 6 37 16 41 8 3 77
1 152 -4 148 -11 255 -3 332 22 60 20 200 138 224 190 30 62 19 76 -127 173
-191 126 -244 182 -313 328 -59 125 -59 122 -24 217 40 113 37 268 -11 456
-30 118 -38 133 -66 126 -39 -9 -188 -97 -238 -139 -25 -21 -67 -66 -93 -98
l-46 -60 -56 7 c-87 10 -100 15 -100 37 0 30 -38 211 -67 321 -19 72 -30 97
-42 97 -9 0 -63 -30 -121 -66z m93 -221 c9 -43 17 -114 17 -159 0 -70 -4 -89
-31 -142 -26 -54 -107 -142 -129 -142 -4 0 -10 40 -14 88 -7 93 4 204 27 271
13 36 95 160 107 161 3 0 13 -35 23 -77z m292 -295 c78 -25 184 -88 223 -132
43 -49 98 -151 126 -232 54 -159 116 -244 252 -345 96 -71 116 -97 67 -84 -82
20 -233 151 -289 251 -19 34 -52 105 -73 158 -48 119 -56 132 -127 192 -32 27
-68 58 -80 70 -32 29 -120 70 -193 90 -54 15 -64 16 -72 3 -7 -11 -9 -9 -9 8
0 48 9 55 64 48 28 -4 78 -16 111 -27z m-12 -434 c50 -26 97 -64 97 -79 0 -23
-44 -28 -79 -10 -45 23 -92 105 -61 105 6 0 25 -7 43 -16z m4296 -255 c134
-151 258 -357 309 -514 98 -300 98 -577 1 -708 -19 -25 -47 -64 -63 -86 -38
-52 -87 -91 -170 -135 -93 -49 -107 -46 -56 11 71 80 169 305 141 323 -12 7
-4 68 14 108 8 17 22 48 31 66 23 52 7 63 -25 19 -42 -58 -150 -164 -205 -202
-113 -78 -311 -131 -428 -114 l-53 7 50 11 c134 31 225 106 289 240 59 121 64
138 70 230 l7 90 -25 -46 c-44 -82 -179 -176 -320 -223 -161 -54 -410 -39
-612 38 -22 8 -100 38 -173 66 -74 28 -162 58 -195 67 -34 8 -94 26 -135 39
-111 36 -269 42 -386 15 -49 -11 -117 -29 -149 -41 -70 -24 -66 -23 -66 -7 0
15 87 64 158 88 127 44 380 48 552 10 95 -21 140 -38 297 -109 154 -70 314
-107 464 -107 113 0 116 1 191 38 42 20 102 58 134 84 76 62 177 191 224 288
68 139 87 333 45 471 -18 60 -18 64 -1 64 7 0 45 -36 85 -81z m-4354 41 c70
-19 218 -75 431 -164 70 -29 211 -56 295 -56 47 0 62 -4 79 -22 25 -28 25 -34
-2 -52 -62 -38 -235 -49 -397 -26 -87 13 -205 8 -276 -11 -48 -13 -149 -83
-227 -157 -97 -92 -132 -195 -143 -417 -7 -145 0 -166 25 -70 16 62 41 113 93
190 77 113 278 303 253 239 -4 -9 -14 -47 -23 -83 -9 -36 -46 -122 -81 -191
-128 -249 -166 -360 -184 -549 -19 -197 19 -399 98 -518 l34 -53 -24 0 c-42 0
-148 44 -271 111 -173 95 -292 211 -392 384 -39 67 -71 147 -41 101 61 -91
164 -219 205 -257 47 -42 55 -45 95 -41 23 2 55 3 71 3 l27 0 -50 62 c-65 80
-153 252 -178 348 -37 140 -45 221 -32 337 14 135 24 171 66 253 48 92 227
259 305 284 61 20 109 50 109 69 0 36 -281 65 -452 46 -60 -6 -112 -9 -115 -6
-21 21 156 193 233 227 120 53 312 61 469 19z m348 -735 c197 -108 382 -128
692 -73 105 18 168 22 325 23 186 0 199 -1 290 -29 214 -64 397 -180 525 -334
143 -171 187 -284 255 -667 17 -98 66 -249 103 -318 40 -77 167 -208 246 -255
57 -34 65 -43 76 -83 6 -24 37 -115 69 -203 31 -87 55 -161 52 -164 -6 -5 -9
3 -51 113 -63 164 -104 238 -157 280 -137 108 -225 210 -296 345 -23 43 -66
159 -101 273 -176 568 -347 770 -761 899 -72 22 -84 23 -325 18 -137 -3 -340
-5 -450 -4 l-200 1 -121 41 c-162 55 -190 59 -244 33 -52 -25 -70 -26 -70 -6
0 21 -10 19 -38 -7 l-24 -23 27 55 c38 75 74 120 96 120 10 0 47 -16 82 -35z
m162 -445 c65 -129 80 -198 80 -365 -1 -128 -5 -168 -29 -270 -27 -119 -117
-404 -137 -434 -9 -14 -10 -14 -5 2 23 72 99 402 112 487 10 59 17 162 18 235
0 144 -12 207 -69 352 -39 98 -21 94 30 -7z m3770 -340 c3 -5 -1 -10 -10 -10
-9 0 -13 5 -10 10 3 6 8 10 10 10 2 0 7 -4 10 -10z m-3210 -153 c-46 -31 -229
-129 -287 -152 -64 -26 -104 -32 -93 -15 3 6 14 10 24 10 9 0 93 38 186 84
161 80 214 103 170 73z m515 -168 c0 -73 91 -218 207 -331 77 -75 236 -181
304 -203 61 -20 235 -82 356 -128 74 -28 83 -35 99 -69 10 -22 23 -42 29 -46
27 -17 93 -113 120 -177 16 -39 42 -88 57 -110 16 -22 39 -55 51 -72 12 -18
30 -33 40 -33 30 0 18 -14 -28 -33 -27 -12 -65 -41 -96 -75 -28 -31 -60 -57
-70 -57 -23 -2 -86 -61 -95 -88 -7 -23 -12 -23 -499 13 -148 11 -363 22 -477
26 l-207 6 51 92 c27 50 106 206 174 346 68 140 134 276 147 301 l23 46 -70
38 c-92 50 -189 143 -222 212 -32 68 -42 173 -24 239 9 32 28 61 62 95 27 27
54 47 59 44 5 -4 9 -20 9 -36z m-849 -172 c-22 -27 44 -176 117 -264 57 -68
111 -104 300 -200 110 -55 136 -73 146 -98 9 -20 10 -36 4 -49 -6 -10 -8 -29
-5 -42 2 -14 0 -21 -6 -17 -6 4 -8 0 -4 -11 5 -11 3 -15 -5 -10 -8 5 -9 2 -5
-10 4 -9 3 -15 -2 -12 -10 7 -92 -173 -94 -207 -1 -14 -6 -25 -12 -24 -5 1
-10 -8 -10 -20 -1 -26 -2 -27 -55 -18 -90 15 -204 -35 -256 -113 -12 -18 -24
-27 -26 -21 -2 7 -19 -7 -37 -29 -18 -23 -30 -46 -27 -51 3 -5 -20 -12 -52
-15 -45 -5 -496 -25 -574 -26 -14 0 -10 13 22 73 81 152 346 758 404 927 18
52 39 119 46 148 13 57 15 60 80 83 58 21 65 22 51 6z m-831 -58 l77 -20 22
-88 c11 -48 21 -116 21 -151 l0 -65 -36 38 c-47 49 -92 77 -181 112 -63 24
-73 32 -73 53 0 34 59 142 78 142 9 0 50 -9 92 -21z m473 -294 c-3 -9 -8 -14
-10 -11 -3 3 -2 9 2 15 9 16 15 13 8 -4z m-22 -52 c-12 -20 -14 -14 -5 12 4 9
9 14 11 11 3 -2 0 -13 -6 -23z m980 -184 c-5 -13 -10 -19 -10 -12 -1 15 10 45
15 40 3 -2 0 -15 -5 -28z m-1453 -523 c32 -17 70 -56 54 -56 -7 0 -12 3 -12 8
-1 18 -59 47 -105 53 l-50 6 43 2 c24 0 55 -5 70 -13z m3117 -15 c43 -19 119
-98 128 -131 6 -25 -10 -27 -17 -2 -7 22 -97 90 -138 104 -16 6 -54 8 -84 5
-30 -3 -54 -4 -54 -1 0 2 15 13 33 24 40 25 80 25 132 1z m-3992 -348 c-7 -2
-21 -2 -30 0 -10 3 -4 5 12 5 17 0 24 -2 18 -5z"/>
</g>
</svg>
